<?xml version="1.0" encoding="utf-8"?>
<!-- Generator: Adobe Illustrator 25.0.0, SVG Export Plug-In . SVG Version: 6.00 Build 0)  -->
<svg version="1.1" id="Layer_1" xmlns="http://www.w3.org/2000/svg" xmlns:xlink="http://www.w3.org/1999/xlink" x="0px" y="0px"
	 viewBox="0 0 271.83 228.56" style="enable-background:new 0 0 271.83 228.56;" xml:space="preserve">
<style type="text/css">
	.st0{fill:url(#SVGID_1_);}
	.st1{fill:#FFFFFF;}
	.st2{clip-path:url(#SVGID_3_);}
	.st3{fill:#D1D3D4;}
	.st4{fill:url(#SVGID_4_);}
	.st5{fill:url(#SVGID_5_);}
</style>
<g>
	<g>
		<linearGradient id="SVGID_1_" gradientUnits="userSpaceOnUse" x1="34.4797" y1="114.2784" x2="235.2793" y2="114.2784">
			<stop  offset="0" style="stop-color:#03A1ED"/>
			<stop  offset="1" style="stop-color:#24E2A4"/>
		</linearGradient>
		<path class="st0" d="M192.53,79.3c-6.09-26.08-29.61-44.82-56.62-44.82c-15.61,0-30.29,6.12-41.32,17.24
			c-6.45,6.54-11.32,14.56-14.07,23.2l-1.4,4.4c-25.96,6.16-44.64,29.7-44.64,56.59c0,32.07,26.09,58.16,58.16,58.16h50.01v-12.95
			c10.32,8.39,23.08,12.95,36.54,12.95c32.07,0,58.16-26.09,58.16-58.16C237.35,108.92,218.61,85.39,192.53,79.3z"/>
		<path class="st1" d="M184.29,87.53c-2.56-24.43-23.28-43.55-48.38-43.55c-13.5,0-25.73,5.53-34.55,14.44
			c-5.33,5.39-9.42,12.01-11.78,19.39l3.62,0.27l6.49,3.35c0.02-0.06,0.04-0.12,0.06-0.18c0.21-0.68,0.45-1.35,0.7-2.02
			c0.07-0.21,0.15-0.42,0.24-0.63c0.11-0.27,0.22-0.55,0.34-0.82c2.15-5.02,5.34-9.48,9.3-13.12c6.75-6.18,15.73-9.96,25.58-9.96
			c20.91,0,37.91,17.01,37.91,37.92V98h5.37c20.91,0,37.91,17.01,37.91,37.91s-17.01,37.91-37.91,37.91
			c-20.91,0-37.91-17.01-37.91-37.91h0.01c0-24.9-18.8-45.47-42.95-48.3c-3.62-0.56-10.8-0.07-10.8-0.07
			c-24.43,2.56-43.54,23.28-43.54,48.38c0,26.82,21.82,48.65,48.65,48.65h40.5v-10.73h-40.5c-20.91,0-37.92-17.01-37.92-37.91
			S71.73,98,92.64,98c20.91,0,37.91,17.01,37.91,37.91h-0.01c0,26.82,21.82,48.65,48.65,48.65c26.82,0,48.65-21.82,48.65-48.65
			C227.84,110.81,208.73,90.09,184.29,87.53z"/>
		<g>
			<defs>
				<circle id="SVGID_2_" cx="92.46" cy="136.15" r="32.36"/>
			</defs>
			<clipPath id="SVGID_3_">
				<use xlink:href="#SVGID_2_"  style="overflow:visible;"/>
			</clipPath>
			<g class="st2">
				
					<rect x="79.25" y="98.16" transform="matrix(0.7071 -0.7071 0.7071 0.7071 -76.5805 102.2005)" class="st1" width="11.64" height="90.76"/>
				
					<rect x="94.03" y="83.39" transform="matrix(0.7071 -0.7071 0.7071 0.7071 -61.808 108.3195)" class="st1" width="11.64" height="90.76"/>
				
					<rect x="79.25" y="83.39" transform="matrix(0.7071 0.7071 -0.7071 0.7071 115.9715 -22.4428)" class="st1" width="11.64" height="90.76"/>
				
					<rect x="94.03" y="98.16" transform="matrix(0.7071 0.7071 -0.7071 0.7071 130.744 -28.5618)" class="st1" width="11.64" height="90.76"/>
				
					<rect x="102.99" y="125.06" transform="matrix(0.7071 -0.7071 0.7071 0.7071 -65.5195 117.2799)" class="st1" width="11.64" height="25.34"/>
				<polygon class="st3" points="92.46,159.16 100.7,150.93 97.25,163.94 				"/>
				<polygon class="st3" points="77.69,144.39 85.92,136.15 82.47,149.17 				"/>
				<polygon class="st3" points="92.46,129.62 100.7,121.38 97.25,134.4 				"/>
			</g>
		</g>
		<linearGradient id="SVGID_4_" gradientUnits="userSpaceOnUse" x1="98.9335" y1="58.5191" x2="98.9335" y2="83.9329">
			<stop  offset="0" style="stop-color:#FFFFFF"/>
			<stop  offset="0.2619" style="stop-color:#FCFEFE"/>
			<stop  offset="0.4405" style="stop-color:#F3FCFD"/>
			<stop  offset="0.5942" style="stop-color:#E4F7FA"/>
			<stop  offset="0.7338" style="stop-color:#CEF1F5"/>
			<stop  offset="0.8638" style="stop-color:#B2E8F0"/>
			<stop  offset="0.9853" style="stop-color:#91DEE9"/>
			<stop  offset="1" style="stop-color:#8CDDE8"/>
		</linearGradient>
		<path class="st4" d="M110.34,64.67c-3.96,3.64-7.16,8.1-9.3,13.12c-0.11,0.27-0.23,0.54-0.34,0.82c-0.09,0.21-0.17,0.42-0.24,0.63
			c-0.25,0.66-0.49,1.33-0.7,2.02c-0.06,0.17-0.11,0.34-0.15,0.51c-0.09,0.26-0.16,0.53-0.23,0.8c-0.11,0.39-0.21,0.77-0.3,1.17
			c-0.02,0.06-0.03,0.12-0.05,0.18c-0.09,0.37-0.17,0.75-0.24,1.13c-0.01,0.01-0.01,0.02-0.01,0.03c-0.09,0.4-0.16,0.8-0.23,1.21
			c-0.01,0.02-0.01,0.04-0.01,0.07c-0.07,0.42-0.14,0.84-0.19,1.26c-5.77-1.03-10.8-0.07-10.8-0.07c0.3-2.84,0.85-5.62,1.62-8.3
			c2.28-7.96,6.54-15.09,12.21-20.82L110.34,64.67z"/>
		<linearGradient id="SVGID_5_" gradientUnits="userSpaceOnUse" x1="134.504" y1="179.1904" x2="120.1765" y2="179.1904">
			<stop  offset="0" style="stop-color:#1AC1C7"/>
			<stop  offset="0.0887" style="stop-color:#3ACACF"/>
			<stop  offset="0.2718" style="stop-color:#75DADD"/>
			<stop  offset="0.4484" style="stop-color:#A6E7E9"/>
			<stop  offset="0.614" style="stop-color:#CDF1F3"/>
			<stop  offset="0.7659" style="stop-color:#E8F9F9"/>
			<stop  offset="0.8994" style="stop-color:#F9FDFE"/>
			<stop  offset="1" style="stop-color:#FFFFFF"/>
		</linearGradient>
		<rect x="118.11" y="173.82" class="st5" width="16.46" height="10.73"/>
	</g>
</g>
</svg>
